<svg xmlns="http://www.w3.org/2000/svg" version="1.0" width="512.000000pt" height="512.000000pt" viewBox="0 0 512.000000 512.000000" preserveAspectRatio="xMidYMid meet">

<g transform="translate(0.000000,512.000000) scale(0.100000,-0.100000)" fill="#FCF8E8" stroke="none">
<path d="M2630 4864 c-249 -99 -453 -179 -1125 -443 -734 -289 -841 -332 -850 -345 -14 -19 -368 -2387 -360 -2408 4 -9 91 -83 193 -165 103 -82 345 -275 537 -428 820 -653 935 -745 1045 -833 99 -79 119 -92 145 -88 17 2 203 73 415 156 530 209 703 277 1510 595 162 64 305 122 316 130 15 10 24 29 28 62 4 26 18 120 31 208 14 88 54 358 90 600 134 897 155 1041 165 1100 29 180 60 397 60 424 0 23 -10 38 -42 65 -61 50 -1362 1086 -1743 1388 -60 49 -119 88 -130 87 -11 0 -139 -47 -285 -105z m710 -360 c473 -377 532 -425 528 -429 -2 -2 -106 26 -233 61 -126 36 -309 87 -405 114 -873 245 -1037 291 -1054 298 -14 6 58 38 270 121 159 63 325 129 369 147 44 18 82 33 85 33 3 1 201 -155 440 -345z m-807 -155 c302 -85 433 -126 420 -131 -10 -4 -261 -60 -558 -123 -297 -64 -623 -134 -723 -156 -101 -22 -186 -39 -188 -36 -2 2 36 41 84 87 48 46 180 176 294 288 120 119 212 203 220 200 7 -3 210 -61 451 -129z m-748 -17 c-153 -150 -930 -908 -1055 -1029 -52 -51 -95 -91 -96 -90 -5 5 116 781 123 787 4 5 94 42 198 83 396 156 605 238 765 301 91 36 170 66 175 66 6 0 -44 -53 -110 -118z m1810 -280 l380 -107 22 -90 c13 -50 63 -247 112 -438 49 -191 85 -347 81 -345 -4 2 -225 237 -490 523 -265 286 -494 533 -509 548 l-26 29 25 -7 c14 -3 196 -55 405 -113z m-349 -84 c99 -106 358 -385 576 -620 219 -235 398 -430 398 -435 0 -4 -38 -129 -85 -278 -47 -148 -158 -506 -248 -794 l-164 -525 -364 -78 c-200 -43 -573 -123 -828 -178 -255 -56 -467 -97 -471 -93 -11 12 -756 817 -958 1033 -100 107 -182 201 -182 209 0 13 23 91 127 421 30 96 85 274 123 395 207 666 240 768 247 775 4 4 287 67 628 140 341 73 706 152 810 175 105 24 195 43 201 44 6 0 92 -86 190 -191z m1189 -337 c149 -118 272 -218 275 -222 6 -9 -174 -1227 -182 -1235 -3 -2 -28 87 -57 198 -28 112 -86 343 -130 513 -43 171 -118 463 -166 650 -47 187 -89 349 -92 359 -6 23 -32 42 352 -263z m-3351 -617 c-120 -385 -219 -701 -221 -703 -2 -2 -5 -2 -7 0 -2 2 -49 179 -103 392 l-100 388 231 228 c283 279 410 401 414 396 2 -1 -95 -317 -214 -701z m-466 -159 c11 -44 108 -428 217 -853 108 -426 195 -775 193 -777 -7 -7 -618 485 -618 497 0 6 41 281 90 610 50 329 90 601 90 605 0 18 10 -10 28 -82z m3753 -464 l93 -365 -305 -298 c-167 -163 -307 -298 -311 -298 -4 0 -1 19 7 43 14 42 93 296 145 462 23 77 90 291 233 748 18 58 34 93 38 85 4 -7 49 -177 100 -377z m-2888 -916 c266 -286 480 -521 476 -523 -10 -4 -801 217 -812 227 -4 4 -59 210 -122 456 l-114 448 44 -44 c25 -24 262 -278 528 -564z m3007 428 c0 -13 -110 -746 -115 -768 -3 -15 -35 -32 -127 -67 -68 -26 -213 -83 -323 -126 -232 -92 -585 -231 -665 -262 l-55 -21 200 198 c430 427 1070 1052 1078 1053 4 0 7 -3 7 -7z m-970 -799 c-58 -58 -189 -186 -291 -284 l-186 -179 -64 19 c-35 10 -228 64 -429 120 -201 56 -371 106 -379 110 -9 5 12 14 60 24 443 98 1358 294 1374 295 14 1 -12 -31 -85 -105z m-2155 -87 c120 -35 457 -129 985 -277 559 -156 602 -169 607 -174 2 -2 -85 -39 -194 -81 -109 -43 -276 -109 -371 -147 l-173 -68 -142 113 c-663 527 -827 659 -827 664 0 3 6 3 13 0 6 -2 53 -16 102 -30z" fill="#FCF8E8"/>
<path d="M2784 3501 c-44 -27 -64 -59 -64 -105 l0 -39 -172 7 c-95 3 -223 11 -285 17 -128 12 -158 5 -179 -46 -26 -65 28 -135 117 -149 54 -9 361 -26 470 -26 l85 0 32 -252 c47 -366 61 -513 68 -693 10 -258 -18 -358 -111 -405 -45 -22 -62 -25 -165 -25 -89 0 -133 6 -195 23 -161 47 -344 150 -387 220 l-21 35 21 16 c11 9 33 24 47 34 15 11 25 27 25 43 0 33 -51 84 -83 84 -40 0 -142 -58 -186 -105 -34 -37 -41 -52 -41 -85 0 -57 29 -108 100 -173 142 -131 413 -249 642 -278 169 -22 332 17 421 100 59 55 82 97 108 198 24 97 26 393 4 629 -14 153 -60 536 -71 600 l-6 31 79 8 c195 17 277 47 307 109 22 46 20 72 -5 97 -24 24 -62 24 -283 -1 -121 -14 -119 -15 -130 52 -8 47 -53 98 -88 98 -13 0 -37 -9 -54 -19z" fill="#FCF8E8"/>
</g>
</svg>